<mxfile host="app.diagrams.net" agent="Mozilla/5.0 (Windows NT 6.1; Win64; x64) AppleWebKit/537.36 (KHTML, like Gecko) Chrome/99.0.4844.84 Safari/537.36 OPR/85.0.4341.60" version="25.0.0">
  <diagram name="Страница — 1" id="MLgpUPTYiMlcbJ_jYuen">
    <mxGraphModel dx="2308" dy="1534" grid="1" gridSize="10" guides="1" tooltips="1" connect="1" arrows="1" fold="1" page="1" pageScale="1" pageWidth="1654" pageHeight="1169" math="0" shadow="0">
      <root>
        <mxCell id="0" />
        <mxCell id="1" parent="0" />
        <mxCell id="cCKFx8KWgtMbssanVQTL-174" value="&lt;div style=&quot;&quot;&gt;&lt;span style=&quot;background-color: rgb(255, 255, 255); font-size: 11px; text-wrap-mode: nowrap;&quot;&gt;errCode &amp;lt; 0 - Error cathed&lt;/span&gt;&lt;/div&gt;&lt;div style=&quot;&quot;&gt;&lt;span style=&quot;font-size: 11px; text-wrap-mode: nowrap; background-color: rgb(255, 255, 255);&quot;&gt;errCode = 0 - Function worked successfully&lt;/span&gt;&lt;span style=&quot;font-size: 11px; text-wrap-mode: nowrap; background-color: rgb(255, 255, 255);&quot;&gt;&lt;/span&gt;&lt;/div&gt;" style="shape=note;size=20;whiteSpace=wrap;html=1;labelPosition=center;verticalLabelPosition=middle;align=left;verticalAlign=top;" parent="1" vertex="1">
          <mxGeometry x="20" y="50" width="170" height="140" as="geometry" />
        </mxCell>
        <mxCell id="Csxos8E5fTR1XFzX8T2c-26" value="main" style="swimlane;" vertex="1" parent="1">
          <mxGeometry x="300" y="50" width="520" height="1040" as="geometry">
            <mxRectangle x="300" y="20" width="90" height="30" as="alternateBounds" />
          </mxGeometry>
        </mxCell>
        <mxCell id="cCKFx8KWgtMbssanVQTL-171" value="TLE8242_checkMK" style="rhombus;whiteSpace=wrap;html=1;fontColor=#000000;fillColor=#ffffc0;strokeColor=#ff0000;" parent="Csxos8E5fTR1XFzX8T2c-26" vertex="1">
          <mxGeometry x="232.5" y="160" width="145" height="80" as="geometry" />
        </mxCell>
        <mxCell id="cCKFx8KWgtMbssanVQTL-173" value="errCode = 0" style="edgeStyle=orthogonalEdgeStyle;html=1;align=left;verticalAlign=top;endArrow=open;endSize=8;strokeColor=#ff0000;rounded=0;entryX=0.5;entryY=0;entryDx=0;entryDy=0;" parent="Csxos8E5fTR1XFzX8T2c-26" source="cCKFx8KWgtMbssanVQTL-171" edge="1" target="Csxos8E5fTR1XFzX8T2c-1">
          <mxGeometry x="-1" relative="1" as="geometry">
            <mxPoint x="305" y="270" as="targetPoint" />
            <Array as="points" />
          </mxGeometry>
        </mxCell>
        <mxCell id="Csxos8E5fTR1XFzX8T2c-1" value="TLE8242_ParsingMsg" style="rhombus;whiteSpace=wrap;html=1;fontColor=#000000;fillColor=#ffffc0;strokeColor=#ff0000;" vertex="1" parent="Csxos8E5fTR1XFzX8T2c-26">
          <mxGeometry x="232.5" y="270" width="145" height="80" as="geometry" />
        </mxCell>
        <mxCell id="Csxos8E5fTR1XFzX8T2c-2" value="errCode = 0" style="edgeStyle=orthogonalEdgeStyle;html=1;align=left;verticalAlign=top;endArrow=open;endSize=8;strokeColor=#ff0000;rounded=0;exitX=0.5;exitY=1;exitDx=0;exitDy=0;entryX=0.5;entryY=0;entryDx=0;entryDy=0;" edge="1" parent="Csxos8E5fTR1XFzX8T2c-26" source="Csxos8E5fTR1XFzX8T2c-1" target="Csxos8E5fTR1XFzX8T2c-4">
          <mxGeometry x="-1" relative="1" as="geometry">
            <mxPoint x="290" y="370" as="targetPoint" />
            <Array as="points" />
            <mxPoint x="290" y="360" as="sourcePoint" />
          </mxGeometry>
        </mxCell>
        <mxCell id="Csxos8E5fTR1XFzX8T2c-4" value="TLE8242_setResetBPin" style="rhombus;whiteSpace=wrap;html=1;fontColor=#000000;fillColor=#ffffc0;strokeColor=#ff0000;" vertex="1" parent="Csxos8E5fTR1XFzX8T2c-26">
          <mxGeometry x="232.5" y="380" width="145" height="80" as="geometry" />
        </mxCell>
        <mxCell id="Csxos8E5fTR1XFzX8T2c-5" value="errCode = 0" style="edgeStyle=orthogonalEdgeStyle;html=1;align=left;verticalAlign=top;endArrow=open;endSize=8;strokeColor=#ff0000;rounded=0;exitX=0.5;exitY=1;exitDx=0;exitDy=0;entryX=0.5;entryY=0;entryDx=0;entryDy=0;" edge="1" parent="Csxos8E5fTR1XFzX8T2c-26" source="Csxos8E5fTR1XFzX8T2c-4" target="Csxos8E5fTR1XFzX8T2c-7">
          <mxGeometry x="-1" relative="1" as="geometry">
            <mxPoint x="290" y="480" as="targetPoint" />
            <Array as="points" />
            <mxPoint x="290" y="470" as="sourcePoint" />
          </mxGeometry>
        </mxCell>
        <mxCell id="Csxos8E5fTR1XFzX8T2c-7" value="TLE8242_setEnablePin" style="rhombus;whiteSpace=wrap;html=1;fontColor=#000000;fillColor=#ffffc0;strokeColor=#ff0000;" vertex="1" parent="Csxos8E5fTR1XFzX8T2c-26">
          <mxGeometry x="232.5" y="490" width="145" height="80" as="geometry" />
        </mxCell>
        <mxCell id="Csxos8E5fTR1XFzX8T2c-8" value="errCode = 0" style="edgeStyle=orthogonalEdgeStyle;html=1;align=left;verticalAlign=top;endArrow=open;endSize=8;strokeColor=#ff0000;rounded=0;exitX=0.5;exitY=1;exitDx=0;exitDy=0;entryX=0.5;entryY=0;entryDx=0;entryDy=0;" edge="1" parent="Csxos8E5fTR1XFzX8T2c-26" source="Csxos8E5fTR1XFzX8T2c-7" target="Csxos8E5fTR1XFzX8T2c-10">
          <mxGeometry x="-1" relative="1" as="geometry">
            <mxPoint x="280" y="590" as="targetPoint" />
            <Array as="points" />
            <mxPoint x="290" y="580" as="sourcePoint" />
          </mxGeometry>
        </mxCell>
        <mxCell id="Csxos8E5fTR1XFzX8T2c-10" value="TLE8242_setDiagnosticTimer" style="rhombus;whiteSpace=wrap;html=1;fontColor=#000000;fillColor=#ffffc0;strokeColor=#ff0000;" vertex="1" parent="Csxos8E5fTR1XFzX8T2c-26">
          <mxGeometry x="216.25" y="600" width="177.5" height="80" as="geometry" />
        </mxCell>
        <mxCell id="Csxos8E5fTR1XFzX8T2c-11" value="errCode = 0" style="edgeStyle=orthogonalEdgeStyle;html=1;align=left;verticalAlign=top;endArrow=open;endSize=8;strokeColor=#ff0000;rounded=0;entryX=0.5;entryY=0;entryDx=0;entryDy=0;exitX=0.5;exitY=1;exitDx=0;exitDy=0;" edge="1" parent="Csxos8E5fTR1XFzX8T2c-26" source="Csxos8E5fTR1XFzX8T2c-10" target="Csxos8E5fTR1XFzX8T2c-15">
          <mxGeometry x="-1" relative="1" as="geometry">
            <mxPoint x="304.89" y="710" as="targetPoint" />
            <Array as="points" />
            <mxPoint x="290" y="690" as="sourcePoint" />
          </mxGeometry>
        </mxCell>
        <mxCell id="Csxos8E5fTR1XFzX8T2c-15" value="TLE8242_setCMethodFmaskConfig" style="rhombus;whiteSpace=wrap;html=1;fontColor=#000000;fillColor=#ffffc0;strokeColor=#ff0000;" vertex="1" parent="Csxos8E5fTR1XFzX8T2c-26">
          <mxGeometry x="191.25" y="710" width="227.5" height="80" as="geometry" />
        </mxCell>
        <mxCell id="Csxos8E5fTR1XFzX8T2c-16" value="errCode = 0" style="edgeStyle=orthogonalEdgeStyle;html=1;align=left;verticalAlign=top;endArrow=open;endSize=8;strokeColor=#ff0000;rounded=0;exitX=0.5;exitY=1;exitDx=0;exitDy=0;entryX=0.5;entryY=0;entryDx=0;entryDy=0;" edge="1" parent="Csxos8E5fTR1XFzX8T2c-26" source="Csxos8E5fTR1XFzX8T2c-15" target="Csxos8E5fTR1XFzX8T2c-18">
          <mxGeometry x="-1" relative="1" as="geometry">
            <mxPoint x="270" y="810" as="targetPoint" />
            <Array as="points" />
            <mxPoint x="290" y="800" as="sourcePoint" />
          </mxGeometry>
        </mxCell>
        <mxCell id="Csxos8E5fTR1XFzX8T2c-18" value="TLE8242_ParsingMsg" style="rhombus;whiteSpace=wrap;html=1;fontColor=#000000;fillColor=#ffffc0;strokeColor=#ff0000;" vertex="1" parent="Csxos8E5fTR1XFzX8T2c-26">
          <mxGeometry x="232.5" y="820" width="145" height="80" as="geometry" />
        </mxCell>
        <mxCell id="Csxos8E5fTR1XFzX8T2c-19" value="errCode = 0" style="edgeStyle=orthogonalEdgeStyle;html=1;align=left;verticalAlign=top;endArrow=open;endSize=8;strokeColor=#ff0000;rounded=0;exitX=0.5;exitY=1;exitDx=0;exitDy=0;entryX=0.5;entryY=0;entryDx=0;entryDy=0;" edge="1" parent="Csxos8E5fTR1XFzX8T2c-26" source="Csxos8E5fTR1XFzX8T2c-18" target="Csxos8E5fTR1XFzX8T2c-21">
          <mxGeometry x="-1" relative="1" as="geometry">
            <mxPoint x="270" y="920" as="targetPoint" />
            <Array as="points" />
            <mxPoint x="290" y="910" as="sourcePoint" />
          </mxGeometry>
        </mxCell>
        <mxCell id="Csxos8E5fTR1XFzX8T2c-21" value="TLE8242_deleteHandler" style="rhombus;whiteSpace=wrap;html=1;fontColor=#000000;fillColor=#ffffc0;strokeColor=#ff0000;" vertex="1" parent="Csxos8E5fTR1XFzX8T2c-26">
          <mxGeometry x="232.5" y="930" width="145" height="80" as="geometry" />
        </mxCell>
        <mxCell id="Csxos8E5fTR1XFzX8T2c-24" value="TLE8242_createHandler" style="rhombus;whiteSpace=wrap;html=1;fontColor=#000000;fillColor=#ffffc0;strokeColor=#ff0000;" vertex="1" parent="Csxos8E5fTR1XFzX8T2c-26">
          <mxGeometry x="232.5" y="50" width="145" height="80" as="geometry" />
        </mxCell>
        <mxCell id="Csxos8E5fTR1XFzX8T2c-25" value="" style="edgeStyle=orthogonalEdgeStyle;html=1;align=left;verticalAlign=top;endArrow=open;endSize=8;strokeColor=#ff0000;rounded=0;entryX=0.5;entryY=0;entryDx=0;entryDy=0;" edge="1" parent="Csxos8E5fTR1XFzX8T2c-26" source="Csxos8E5fTR1XFzX8T2c-24" target="cCKFx8KWgtMbssanVQTL-171">
          <mxGeometry x="-1" relative="1" as="geometry">
            <mxPoint x="280" y="150" as="targetPoint" />
            <Array as="points" />
          </mxGeometry>
        </mxCell>
        <mxCell id="Csxos8E5fTR1XFzX8T2c-13" value="enum TLE8242_DiagnosticTimer_t dTimer" style="rounded=1;arcSize=10;whiteSpace=wrap;html=1;align=center;" vertex="1" parent="Csxos8E5fTR1XFzX8T2c-26">
          <mxGeometry x="20" y="615" width="160" height="50" as="geometry" />
        </mxCell>
        <mxCell id="Csxos8E5fTR1XFzX8T2c-14" value="" style="edgeStyle=orthogonalEdgeStyle;html=1;align=left;verticalAlign=top;endArrow=open;endSize=8;strokeColor=#ff0000;rounded=0;exitX=1;exitY=0.5;exitDx=0;exitDy=0;entryX=0;entryY=0.5;entryDx=0;entryDy=0;" edge="1" parent="Csxos8E5fTR1XFzX8T2c-26" source="Csxos8E5fTR1XFzX8T2c-13" target="Csxos8E5fTR1XFzX8T2c-10">
          <mxGeometry x="-1" relative="1" as="geometry">
            <mxPoint x="216.25" y="625" as="targetPoint" />
            <Array as="points" />
            <mxPoint x="216.25" y="595" as="sourcePoint" />
          </mxGeometry>
        </mxCell>
        <mxCell id="Csxos8E5fTR1XFzX8T2c-27" value="end" style="ellipse;html=1;shape=endState;fillColor=#3399FF;strokeColor=#6c8ebf;" vertex="1" parent="1">
          <mxGeometry x="590" y="1110" width="30" height="30" as="geometry" />
        </mxCell>
        <mxCell id="Csxos8E5fTR1XFzX8T2c-22" value="return 0" style="edgeStyle=orthogonalEdgeStyle;html=1;align=left;verticalAlign=top;endArrow=open;endSize=8;strokeColor=#ff0000;rounded=0;exitX=0.5;exitY=1;exitDx=0;exitDy=0;entryX=0.5;entryY=0;entryDx=0;entryDy=0;" edge="1" parent="1" source="Csxos8E5fTR1XFzX8T2c-21" target="Csxos8E5fTR1XFzX8T2c-27">
          <mxGeometry x="-1" relative="1" as="geometry">
            <mxPoint x="460" y="1120" as="targetPoint" />
            <Array as="points" />
            <mxPoint x="520" y="1070" as="sourcePoint" />
          </mxGeometry>
        </mxCell>
        <mxCell id="Csxos8E5fTR1XFzX8T2c-28" value="start" style="ellipse;html=1;shape=startState;fillColor=#3399FF;strokeColor=#ff0000;align=center;" vertex="1" parent="1">
          <mxGeometry x="240" y="120" width="40" height="40" as="geometry" />
        </mxCell>
        <mxCell id="Csxos8E5fTR1XFzX8T2c-29" value="" style="edgeStyle=orthogonalEdgeStyle;html=1;verticalAlign=bottom;endArrow=open;endSize=8;strokeColor=#ff0000;rounded=0;entryX=0;entryY=0.5;entryDx=0;entryDy=0;" edge="1" source="Csxos8E5fTR1XFzX8T2c-28" parent="1" target="Csxos8E5fTR1XFzX8T2c-24">
          <mxGeometry relative="1" as="geometry">
            <mxPoint x="542.5" y="109" as="targetPoint" />
          </mxGeometry>
        </mxCell>
        <mxCell id="Csxos8E5fTR1XFzX8T2c-58" value="errorProgramConclusion" style="swimlane;" vertex="1" parent="1">
          <mxGeometry x="980" y="50" width="240" height="360" as="geometry">
            <mxRectangle x="980" y="20" width="170" height="30" as="alternateBounds" />
          </mxGeometry>
        </mxCell>
        <mxCell id="Csxos8E5fTR1XFzX8T2c-63" value="TLE8242_errorHandler" style="rhombus;whiteSpace=wrap;html=1;fontColor=#000000;fillColor=#ffffc0;strokeColor=#ff0000;" vertex="1" parent="Csxos8E5fTR1XFzX8T2c-58">
          <mxGeometry x="47.5" y="40" width="145" height="80" as="geometry" />
        </mxCell>
        <mxCell id="Csxos8E5fTR1XFzX8T2c-68" value="" style="edgeStyle=orthogonalEdgeStyle;html=1;align=left;verticalAlign=top;endArrow=open;endSize=8;strokeColor=#ff0000;rounded=0;exitX=0.5;exitY=1;exitDx=0;exitDy=0;entryX=0.5;entryY=0;entryDx=0;entryDy=0;" edge="1" parent="Csxos8E5fTR1XFzX8T2c-58" target="Csxos8E5fTR1XFzX8T2c-69" source="Csxos8E5fTR1XFzX8T2c-63">
          <mxGeometry x="-1" relative="1" as="geometry">
            <mxPoint x="85" y="150" as="targetPoint" />
            <Array as="points" />
            <mxPoint x="120" y="130" as="sourcePoint" />
          </mxGeometry>
        </mxCell>
        <mxCell id="Csxos8E5fTR1XFzX8T2c-69" value="TLE8242_deleteHandler" style="rhombus;whiteSpace=wrap;html=1;fontColor=#000000;fillColor=#ffffc0;strokeColor=#ff0000;" vertex="1" parent="Csxos8E5fTR1XFzX8T2c-58">
          <mxGeometry x="47.5" y="150" width="145" height="80" as="geometry" />
        </mxCell>
        <mxCell id="Csxos8E5fTR1XFzX8T2c-70" value="" style="edgeStyle=orthogonalEdgeStyle;html=1;align=left;verticalAlign=top;endArrow=open;endSize=8;strokeColor=#ff0000;rounded=0;entryX=0.5;entryY=0;entryDx=0;entryDy=0;exitX=0.5;exitY=1;exitDx=0;exitDy=0;" edge="1" parent="Csxos8E5fTR1XFzX8T2c-58" target="Csxos8E5fTR1XFzX8T2c-71" source="Csxos8E5fTR1XFzX8T2c-69">
          <mxGeometry x="-1" relative="1" as="geometry">
            <mxPoint x="85" y="260" as="targetPoint" />
            <Array as="points" />
            <mxPoint x="150" y="240" as="sourcePoint" />
          </mxGeometry>
        </mxCell>
        <mxCell id="Csxos8E5fTR1XFzX8T2c-71" value="exit(1)" style="rhombus;whiteSpace=wrap;html=1;fontColor=#000000;fillColor=#ffffc0;strokeColor=#ff0000;" vertex="1" parent="Csxos8E5fTR1XFzX8T2c-58">
          <mxGeometry x="47.5" y="260" width="145" height="80" as="geometry" />
        </mxCell>
        <mxCell id="Csxos8E5fTR1XFzX8T2c-64" value="call" style="ellipse;html=1;shape=startState;fillColor=#99FFFF;strokeColor=#ff0000;" vertex="1" parent="1">
          <mxGeometry x="890" y="115" width="30" height="30" as="geometry" />
        </mxCell>
        <mxCell id="Csxos8E5fTR1XFzX8T2c-65" value="" style="edgeStyle=orthogonalEdgeStyle;html=1;verticalAlign=bottom;endArrow=open;endSize=8;strokeColor=#ff0000;rounded=0;entryX=0;entryY=0.5;entryDx=0;entryDy=0;" edge="1" source="Csxos8E5fTR1XFzX8T2c-64" parent="1" target="Csxos8E5fTR1XFzX8T2c-63">
          <mxGeometry relative="1" as="geometry">
            <mxPoint x="1140" y="140" as="targetPoint" />
          </mxGeometry>
        </mxCell>
        <mxCell id="Csxos8E5fTR1XFzX8T2c-3" value="errCode &amp;lt; 0" style="edgeStyle=orthogonalEdgeStyle;html=1;align=left;verticalAlign=bottom;endArrow=open;endSize=8;strokeColor=#ff0000;rounded=0;exitX=1;exitY=0.5;exitDx=0;exitDy=0;entryX=0.5;entryY=1;entryDx=0;entryDy=0;" edge="1" parent="1" source="Csxos8E5fTR1XFzX8T2c-1" target="Csxos8E5fTR1XFzX8T2c-64">
          <mxGeometry x="-1" relative="1" as="geometry">
            <mxPoint x="790" y="360" as="targetPoint" />
            <Array as="points" />
            <mxPoint x="690" y="370" as="sourcePoint" />
          </mxGeometry>
        </mxCell>
        <mxCell id="Csxos8E5fTR1XFzX8T2c-6" value="errCode &amp;lt; 0" style="edgeStyle=orthogonalEdgeStyle;html=1;align=left;verticalAlign=bottom;endArrow=open;endSize=8;strokeColor=#ff0000;rounded=0;exitX=1;exitY=0.5;exitDx=0;exitDy=0;entryX=0.5;entryY=1;entryDx=0;entryDy=0;" edge="1" parent="1" source="Csxos8E5fTR1XFzX8T2c-4" target="Csxos8E5fTR1XFzX8T2c-64">
          <mxGeometry x="-1" relative="1" as="geometry">
            <mxPoint x="790" y="470" as="targetPoint" />
            <Array as="points" />
            <mxPoint x="690" y="480" as="sourcePoint" />
          </mxGeometry>
        </mxCell>
        <mxCell id="Csxos8E5fTR1XFzX8T2c-9" value="errCode &amp;lt; 0" style="edgeStyle=orthogonalEdgeStyle;html=1;align=left;verticalAlign=bottom;endArrow=open;endSize=8;strokeColor=#ff0000;rounded=0;exitX=1;exitY=0.5;exitDx=0;exitDy=0;entryX=0.5;entryY=1;entryDx=0;entryDy=0;" edge="1" parent="1" source="Csxos8E5fTR1XFzX8T2c-7" target="Csxos8E5fTR1XFzX8T2c-64">
          <mxGeometry x="-1" relative="1" as="geometry">
            <mxPoint x="790" y="580" as="targetPoint" />
            <Array as="points" />
            <mxPoint x="690" y="590" as="sourcePoint" />
          </mxGeometry>
        </mxCell>
        <mxCell id="Csxos8E5fTR1XFzX8T2c-12" value="errCode &amp;lt; 0" style="edgeStyle=orthogonalEdgeStyle;html=1;align=left;verticalAlign=bottom;endArrow=open;endSize=8;strokeColor=#ff0000;rounded=0;exitX=1;exitY=0.5;exitDx=0;exitDy=0;entryX=0.5;entryY=1;entryDx=0;entryDy=0;" edge="1" parent="1" source="Csxos8E5fTR1XFzX8T2c-10" target="Csxos8E5fTR1XFzX8T2c-64">
          <mxGeometry x="-1" relative="1" as="geometry">
            <mxPoint x="790" y="690" as="targetPoint" />
            <Array as="points" />
            <mxPoint x="690" y="700" as="sourcePoint" />
          </mxGeometry>
        </mxCell>
        <mxCell id="Csxos8E5fTR1XFzX8T2c-17" value="errCode &amp;lt; 0" style="edgeStyle=orthogonalEdgeStyle;html=1;align=left;verticalAlign=bottom;endArrow=open;endSize=8;strokeColor=#ff0000;rounded=0;exitX=1;exitY=0.5;exitDx=0;exitDy=0;entryX=0.5;entryY=1;entryDx=0;entryDy=0;" edge="1" parent="1" source="Csxos8E5fTR1XFzX8T2c-15" target="Csxos8E5fTR1XFzX8T2c-64">
          <mxGeometry x="-1" relative="1" as="geometry">
            <mxPoint x="790" y="800" as="targetPoint" />
            <Array as="points" />
            <mxPoint x="690" y="810" as="sourcePoint" />
          </mxGeometry>
        </mxCell>
        <mxCell id="Csxos8E5fTR1XFzX8T2c-20" value="errCode &amp;lt; 0" style="edgeStyle=orthogonalEdgeStyle;html=1;align=left;verticalAlign=bottom;endArrow=open;endSize=8;strokeColor=#ff0000;rounded=0;exitX=1;exitY=0.5;exitDx=0;exitDy=0;entryX=0.5;entryY=1;entryDx=0;entryDy=0;" edge="1" parent="1" source="Csxos8E5fTR1XFzX8T2c-18" target="Csxos8E5fTR1XFzX8T2c-64">
          <mxGeometry x="-1" relative="1" as="geometry">
            <mxPoint x="790" y="910" as="targetPoint" />
            <Array as="points" />
            <mxPoint x="690" y="920" as="sourcePoint" />
          </mxGeometry>
        </mxCell>
        <mxCell id="Csxos8E5fTR1XFzX8T2c-72" value="" style="edgeStyle=orthogonalEdgeStyle;html=1;align=left;verticalAlign=top;endArrow=open;endSize=8;strokeColor=#ff0000;rounded=0;exitX=0.5;exitY=1;exitDx=0;exitDy=0;entryX=1;entryY=0.5;entryDx=0;entryDy=0;" edge="1" parent="1" source="Csxos8E5fTR1XFzX8T2c-71" target="Csxos8E5fTR1XFzX8T2c-27">
          <mxGeometry x="-1" relative="1" as="geometry">
            <mxPoint x="1027.5" y="470" as="targetPoint" />
            <Array as="points" />
            <mxPoint x="1097.5" y="410" as="sourcePoint" />
          </mxGeometry>
        </mxCell>
        <mxCell id="Csxos8E5fTR1XFzX8T2c-73" value="errCode &amp;lt; 0" style="edgeStyle=orthogonalEdgeStyle;html=1;align=left;verticalAlign=bottom;endArrow=open;endSize=8;strokeColor=#ff0000;rounded=0;exitX=1;exitY=0.5;exitDx=0;exitDy=0;entryX=0.5;entryY=1;entryDx=0;entryDy=0;" edge="1" parent="1" source="cCKFx8KWgtMbssanVQTL-171" target="Csxos8E5fTR1XFzX8T2c-64">
          <mxGeometry x="-1" relative="1" as="geometry">
            <mxPoint x="915" y="32.239999999999995" as="targetPoint" />
            <Array as="points" />
            <mxPoint x="688" y="247.24" as="sourcePoint" />
          </mxGeometry>
        </mxCell>
        <mxCell id="Csxos8E5fTR1XFzX8T2c-74" value="" style="edgeStyle=orthogonalEdgeStyle;html=1;verticalAlign=bottom;endArrow=open;strokeColor=#ff0000;rounded=0;entryX=0.002;entryY=0.351;entryDx=0;entryDy=0;exitX=1;exitY=0.5;exitDx=0;exitDy=0;curved=0;strokeWidth=1;entryPerimeter=0;" edge="1" parent="1" source="Csxos8E5fTR1XFzX8T2c-63" target="Csxos8E5fTR1XFzX8T2c-77">
          <mxGeometry relative="1" as="geometry">
            <mxPoint x="1298" y="129.47" as="targetPoint" />
            <mxPoint x="1190" y="129.47" as="sourcePoint" />
          </mxGeometry>
        </mxCell>
        <mxCell id="Csxos8E5fTR1XFzX8T2c-81" value="" style="group" vertex="1" connectable="0" parent="1">
          <mxGeometry x="1325" y="115" width="160" height="55" as="geometry" />
        </mxCell>
        <mxCell id="Csxos8E5fTR1XFzX8T2c-77" value="Stderr" style="shape=umlFrame;whiteSpace=wrap;html=1;pointerEvents=0;width=60;height=25;" vertex="1" parent="Csxos8E5fTR1XFzX8T2c-81">
          <mxGeometry x="5" width="150" height="45" as="geometry" />
        </mxCell>
        <mxCell id="Csxos8E5fTR1XFzX8T2c-78" value="Catched error information" style="text;html=1;align=center;verticalAlign=middle;resizable=0;points=[];autosize=1;strokeColor=none;fillColor=none;" vertex="1" parent="Csxos8E5fTR1XFzX8T2c-81">
          <mxGeometry y="25" width="160" height="30" as="geometry" />
        </mxCell>
        <mxCell id="Csxos8E5fTR1XFzX8T2c-82" value="" style="group" vertex="1" connectable="0" parent="1">
          <mxGeometry x="50" y="390" width="160" height="55" as="geometry" />
        </mxCell>
        <mxCell id="Csxos8E5fTR1XFzX8T2c-83" value="Stdout" style="shape=umlFrame;whiteSpace=wrap;html=1;pointerEvents=0;width=60;height=25;" vertex="1" parent="Csxos8E5fTR1XFzX8T2c-82">
          <mxGeometry x="5" width="150" height="45" as="geometry" />
        </mxCell>
        <mxCell id="Csxos8E5fTR1XFzX8T2c-84" value="Information from message" style="text;html=1;align=center;verticalAlign=middle;resizable=0;points=[];autosize=1;strokeColor=none;fillColor=none;" vertex="1" parent="Csxos8E5fTR1XFzX8T2c-82">
          <mxGeometry y="25" width="160" height="30" as="geometry" />
        </mxCell>
        <mxCell id="Csxos8E5fTR1XFzX8T2c-85" value="" style="edgeStyle=orthogonalEdgeStyle;html=1;verticalAlign=bottom;endArrow=open;endSize=8;strokeColor=#ff0000;rounded=0;exitX=0.5;exitY=1;exitDx=0;exitDy=0;entryX=0.995;entryY=0.446;entryDx=0;entryDy=0;entryPerimeter=0;" edge="1" parent="1" source="Csxos8E5fTR1XFzX8T2c-1" target="Csxos8E5fTR1XFzX8T2c-83">
          <mxGeometry relative="1" as="geometry">
            <mxPoint x="330" y="390" as="targetPoint" />
            <mxPoint x="600" y="410" as="sourcePoint" />
          </mxGeometry>
        </mxCell>
        <mxCell id="Csxos8E5fTR1XFzX8T2c-87" value="" style="edgeStyle=orthogonalEdgeStyle;html=1;verticalAlign=bottom;endArrow=open;endSize=8;strokeColor=#ff0000;rounded=0;exitX=0.5;exitY=1;exitDx=0;exitDy=0;entryX=0.998;entryY=0.446;entryDx=0;entryDy=0;entryPerimeter=0;" edge="1" parent="1" source="Csxos8E5fTR1XFzX8T2c-18" target="Csxos8E5fTR1XFzX8T2c-83">
          <mxGeometry relative="1" as="geometry">
            <mxPoint x="214" y="420" as="targetPoint" />
            <mxPoint x="615" y="410" as="sourcePoint" />
            <Array as="points">
              <mxPoint x="605" y="960" />
              <mxPoint x="280" y="960" />
              <mxPoint x="280" y="410" />
            </Array>
          </mxGeometry>
        </mxCell>
        <mxCell id="Csxos8E5fTR1XFzX8T2c-88" value="&lt;font style=&quot;font-size: 24px;&quot;&gt;&lt;b&gt;main.c file diagramm&lt;/b&gt;&lt;/font&gt;" style="text;html=1;align=center;verticalAlign=middle;whiteSpace=wrap;rounded=0;" vertex="1" parent="1">
          <mxGeometry x="1330" y="10" width="250" height="30" as="geometry" />
        </mxCell>
      </root>
    </mxGraphModel>
  </diagram>
</mxfile>
